<svg id="Livello_1" data-name="Livello 1" xmlns="http://www.w3.org/2000/svg" viewBox="0 0 663.59 281.06"><defs><style>.cls-1{fill:none;stroke-linecap:round;stroke-linejoin:round;stroke-width:18px;}.cls-1,.cls-2,.cls-3{stroke:#08a6b2;}.cls-2{font-size:249.92px;font-family:SansSerif;}.cls-2,.cls-3{fill:#08a6b2;stroke-miterlimit:10;}.cls-3{stroke-width:7px;}</style></defs><path class="cls-1" d="M579.5,452.5l-447.16-2.22c-107.57-1.8-107.81-162,0-163.88H617.83" transform="translate(-42.57 -277.4)"/><text class="cls-2" transform="translate(81.1 225.33)">* * *</text><path class="cls-3" d="M630,458q-30.53,0-61.07,0c-8.37,0-11.45-3.07-11.46-11.36q0-38.6,0-77.19c0-7.92,3.17-11.05,11.11-11.19,6.8-.12,7-.13,6.77-7.26-3.29-75.74,106.28-76.91,109.3-7.44.4,11.49-2.76,16.44,9.71,14.74,4.95.78,8.22,3.94,8.24,9.09q.15,40.77,0,81.52c0,5.87-3.87,9.06-10.42,9.08C671.43,458,650.71,458,630,458Zm-.33-5.35q30,0,60,0c7,0,7.55-.57,7.55-7.26q0-37.26,0-74.51c0-6.59-.57-7.18-7-7.18q-60,0-120,0c-6.77,0-7.27.54-7.28,7.49q0,37,0,74c0,6.91.55,7.49,7.31,7.5Q599.92,452.66,629.66,452.64Zm.31-94.4c7.75,0,15.5.15,23.25,0,14-.34,12.46,3.09,11.88-12.83-1.77-47.74-75.55-43.76-70.36,7.95.17,3.69,1.14,5.05,5,5C609.78,358.09,619.88,358.23,630,358.24Zm49.4-9.36c-.33-72.27-106-65.76-98.66,6.58.19,3,2.14,2.85,4.16,2.81s4.53.47,4.56-2.94c-6.64-57.81,73.91-67.3,80.91-12.84,1.6,5.61-3,16.51,5,15.88C681.19,358.67,679,353,679.37,348.88Z" transform="translate(-42.57 -277.4)"/></svg>